<svg width="14" height="15" viewBox="0 0 14 15" fill="none" xmlns="http://www.w3.org/2000/svg">
<path d="M6.53849 7.8718C5.51889 7.8718 4.69234 7.04525 4.69234 6.02564C4.69234 5.00604 5.51889 4.17949 6.53849 4.17949C7.55809 4.17949 8.38464 5.00604 8.38464 6.02564C8.38464 7.04525 7.55809 7.8718 6.53849 7.8718Z" stroke="#0081B3" stroke-linecap="round" stroke-linejoin="round"/>
<path d="M13 9.71795H12.0769M13 4.17949H12.0769V3.25642C12.0769 2.76679 11.8824 2.29721 11.5362 1.95099C11.19 1.60477 10.7204 1.41026 10.2308 1.41026H2.84615C2.35652 1.41026 1.88695 1.60477 1.54073 1.95099C1.19451 2.29721 1 2.76679 1 3.25642V12.4872C1 12.9768 1.19451 13.4464 1.54073 13.7926C1.88695 14.1388 2.35652 14.3333 2.84615 14.3333H10.2308C10.7204 14.3333 11.19 14.1388 11.5362 13.7926C11.8824 13.4464 12.0769 12.9768 12.0769 12.4872V11.5641H13V4.17949ZM13 7.8718H12.0769H13ZM13 6.02565H12.0769H13Z" stroke="#0081B3" stroke-linecap="round" stroke-linejoin="round"/>
<path fill-rule="evenodd" clip-rule="evenodd" d="M3.76922 10.641V9.71796C3.76922 9.22833 3.96372 8.75876 4.30994 8.41254C4.65616 8.06632 5.12574 7.87181 5.61537 7.87181H7.46152C7.95115 7.87181 8.42073 8.06632 8.76695 8.41254C9.11317 8.75876 9.30768 9.22833 9.30768 9.71796V10.641C9.30768 10.8859 9.21043 11.1206 9.03732 11.2938C8.8642 11.4669 8.62942 11.5641 8.3846 11.5641H4.69229C4.44748 11.5641 4.21269 11.4669 4.03958 11.2938C3.86647 11.1206 3.76922 10.8859 3.76922 10.641Z" stroke="#0081B3" stroke-linecap="round" stroke-linejoin="round"/>
</svg>
