<svg width="14" height="14" viewBox="0 0 14 14" fill="none" xmlns="http://www.w3.org/2000/svg">
<path d="M3 9.5H2V12H3V9.5ZM5 7H4V12H5V7ZM9.5 12C10.1628 11.9992 10.7982 11.7356 11.2669 11.2669C11.7356 10.7982 11.9992 10.1628 12 9.5H11C11 9.79667 10.912 10.0867 10.7472 10.3334C10.5824 10.58 10.3481 10.7723 10.074 10.8858C9.79994 10.9994 9.49834 11.0291 9.20736 10.9712C8.91639 10.9133 8.64912 10.7704 8.43934 10.5607C8.22956 10.3509 8.0867 10.0836 8.02882 9.79264C7.97094 9.50166 8.00065 9.20006 8.11418 8.92597C8.22771 8.65189 8.41997 8.41762 8.66664 8.2528C8.91332 8.08797 9.20333 8 9.5 8V7C8.83696 7 8.20107 7.26339 7.73223 7.73223C7.26339 8.20107 7 8.83696 7 9.5C7 10.163 7.26339 10.7989 7.73223 11.2678C8.20107 11.7366 8.83696 12 9.5 12Z" fill="#0081B3"/>
<path d="M1 0H13C13.2651 0.000264738 13.5193 0.105707 13.7068 0.293186C13.8943 0.480665 13.9997 0.734865 14 1V13C13.9997 13.2651 13.8943 13.5193 13.7068 13.7068C13.5193 13.8943 13.2651 13.9997 13 14H1C0.734905 13.9996 0.480782 13.8941 0.293331 13.7067C0.105881 13.5192 0.000396729 13.2651 0 13V1C0.000265121 0.734865 0.105706 0.480665 0.293185 0.293186C0.480664 0.105707 0.734865 0.000264738 1 0ZM1 4.5H8V1H1V4.5ZM9 1V4.5H13V1H9ZM13 13V5.5H1L0.999 13H13Z" fill="#0081B3"/>
</svg>
