<svg width="15" height="17" viewBox="0 0 15 17" fill="none" xmlns="http://www.w3.org/2000/svg">
<path d="M4.45074 3.76857C3.98407 4.34555 3.72911 5.06497 3.72832 5.80706C3.72753 6.54915 3.98094 7.26911 4.44638 7.8471L3.64004 8.49429C3.02671 7.7326 2.69277 6.78381 2.69382 5.80588C2.69487 4.82795 3.03083 3.87988 3.64579 3.1195L4.45074 3.76857ZM1.54693 1.42686L2.35476 2.07826C1.50189 3.13288 1.03594 4.44778 1.03448 5.8041C1.03302 7.16042 1.49614 8.47633 2.34674 9.53278L1.53759 10.1826C0.540776 8.9407 -0.00174236 7.3955 -4.33922e-05 5.80307C0.00165606 4.21063 0.54747 2.66659 1.54693 1.42686Z" fill="#0081B3"/>
<path d="M4.28022 11.4889L6.63436 9.95876L5.74681 8.33159C5.53992 7.9516 5.43138 7.52589 5.43107 7.09322V4.51734C5.43107 3.55708 5.81254 2.63615 6.49154 1.95714C7.17055 1.27813 8.09148 0.896667 9.05175 0.896667C10.012 0.896667 10.9329 1.27813 11.6119 1.95714C12.291 2.63615 12.6724 3.55708 12.6724 4.51734V7.09322C12.6721 7.5259 12.5635 7.95162 12.3566 8.33162L11.4691 9.95876L13.8233 11.4889C14.1851 11.7232 14.4824 12.0444 14.6879 12.4232C14.8935 12.802 15.0008 13.2263 15 13.6573V16.4138H3.1035V13.6573C3.10268 13.2263 3.20997 12.802 3.41554 12.4232C3.62112 12.0444 3.91841 11.7232 4.28022 11.4889ZM4.13798 15.3794H13.9655V13.6573C13.966 13.3987 13.9016 13.1441 13.7783 12.9168C13.6549 12.6896 13.4765 12.4968 13.2595 12.3563L10.1023 10.3041L11.4485 7.83627C11.5726 7.60827 11.6377 7.35283 11.6379 7.09322V4.51734C11.6379 3.83144 11.3655 3.17363 10.8805 2.68862C10.3955 2.20362 9.73765 1.93115 9.05175 1.93115C8.36585 1.93115 7.70804 2.20362 7.22303 2.68862C6.73802 3.17363 6.46555 3.83144 6.46555 4.51734V7.09322C6.46575 7.35282 6.53088 7.60825 6.65502 7.83624L8.0011 10.3042L4.84394 12.3563C4.62687 12.4968 4.44851 12.6896 4.32518 12.9169C4.20185 13.1442 4.13749 13.3987 4.13798 13.6573V15.3794Z" fill="#0081B3"/>
</svg>
