<svg width="15" height="16" viewBox="0 0 15 16" fill="none" xmlns="http://www.w3.org/2000/svg">
<path d="M14 2.05512C14 1.77528 13.8919 1.50691 13.6994 1.30904C13.5069 1.11116 13.2459 1 12.9737 1H4.76316C4.49096 1 4.22991 1.11116 4.03744 1.30904C3.84497 1.50691 3.73684 1.77528 3.73684 2.05512V15.0682H12.9737C13.2459 15.0682 13.5069 14.9571 13.6994 14.7592C13.8919 14.5613 14 14.293 14 14.0131V2.05512ZM3.73684 8.03412C3.73684 7.84756 3.66476 7.66865 3.53644 7.53673C3.40813 7.40482 3.2341 7.33071 3.05263 7.33071H1.68421C1.50275 7.33071 1.32871 7.40482 1.2004 7.53673C1.07209 7.66865 1 7.84756 1 8.03412V14.0131C1 14.293 1.10813 14.5613 1.3006 14.7592C1.49307 14.9571 1.75412 15.0682 2.02632 15.0682H3.73684V8.03412Z" stroke="#0081B3" stroke-width="1.36842" stroke-linejoin="round"/>
<path d="M11.9474 6.27561H7.84212M11.9474 3.81366H9.21055H11.9474Z" stroke="#0081B3" stroke-width="1.36842" stroke-linecap="round" stroke-linejoin="round"/>
</svg>
