<svg width="13" height="15" viewBox="0 0 13 15" fill="none" xmlns="http://www.w3.org/2000/svg">
<path d="M9.94415 8.46184H5.2645V9.51957H9.94415V8.46184ZM9.94415 5.81752H2.92467V6.87525H9.94415V5.81752ZM9.94415 11.1062H7.01937V12.1639H9.94415V11.1062Z" fill="#0081B3"/>
<path d="M1.16988 1.58659H2.92475V1.05773C2.92475 0.777203 3.04801 0.508165 3.26741 0.309802C3.48682 0.111439 3.78439 0 4.09467 0H8.77432C9.0846 0 9.38217 0.111439 9.60158 0.309802C9.82098 0.508165 9.94424 0.777203 9.94424 1.05773V1.58659H11.6991C12.0094 1.58659 12.307 1.69803 12.5264 1.8964C12.7458 2.09476 12.869 2.3638 12.869 2.64432V13.7505C12.869 14.031 12.7458 14.3001 12.5264 14.4984C12.307 14.6968 12.0094 14.8082 11.6991 14.8082H1.16988C0.859604 14.8082 0.562033 14.6968 0.342631 14.4984C0.12323 14.3001 -2.86102e-05 14.031 -2.86102e-05 13.7505V2.64432C-2.86102e-05 2.3638 0.12323 2.09476 0.342631 1.8964C0.562033 1.69803 0.859604 1.58659 1.16988 1.58659ZM8.77432 1.05773H4.09467V3.17319H8.77432V1.05773ZM1.16988 13.7505H11.6991V2.64432H9.94424V4.23092H2.92475V2.64432H1.16988V13.7505Z" fill="#0081B3"/>
</svg>
