<svg width="117" height="77" viewBox="0 0 117 77" fill="none" xmlns="http://www.w3.org/2000/svg">
<g clip-path="url(#clip0_4_89)">
<path d="M102.208 14.3381L54.2841 0L6.36011 14.3381V21.0888L54.2841 6.86223L102.208 21.0888V14.3381Z" fill="#0081B3"/>
<path d="M20.5867 23.153H14.0034V55.2884H20.5867V23.153Z" fill="#0081B3"/>
<path d="M40.9502 23.153H34.3669V55.2884H40.9502V23.153Z" fill="#A5C954"/>
<path d="M95.2901 23.153H88.7068V55.2884H95.2901V23.153Z" fill="#A5C954"/>
<path d="M49.4303 18.0761H42.847V55.2883H49.4303V18.0761Z" fill="#0081B3"/>
<path d="M57.8547 21.1446H51.2714V55.2884H57.8547V21.1446Z" fill="#FFCD4E"/>
<path d="M86.7542 21.1446H80.1709V55.2884H86.7542V21.1446Z" fill="#FFCD4E"/>
<path d="M66.3349 18.0761H59.7516V55.2883H66.3349V18.0761Z" fill="#A5C954"/>
<path d="M78.7203 54.7862L72.1371 55.2884L67.7296 18.4667L74.3129 17.9088L78.7203 54.7862Z" fill="#0081B3"/>
<path d="M22.0372 54.7862L28.6205 55.2884L33.028 18.4667L26.4447 17.9088L22.0372 54.7862Z" fill="#FFCD4E"/>
<path d="M9.70754 73.9781H9.54017L7.81066 71.077C7.69908 70.8539 7.47592 70.5749 7.30855 70.296C8.92647 69.7939 9.9307 68.6223 9.9307 67.0043C9.9307 64.6053 8.42436 63.4337 5.30009 63.4337C4.40745 63.4337 3.29164 63.4895 2.51057 63.4895C2.06425 63.4895 1.67371 63.4895 1.50634 63.4895H0V65.1633H0.111581C0.613695 65.2748 1.11581 65.3306 1.56213 65.3864V73.9224C1.11581 73.9781 0.557905 74.0897 0.111581 74.2013H0V75.875H5.2443V74.2013H5.13272C4.79798 74.0897 4.46324 74.0339 4.12849 73.9781V70.8539H4.74219L7.53171 75.875H10.7676V74.1455H10.656C10.3212 74.0897 10.0423 74.0339 9.70754 73.9781ZM4.12849 65.5538C4.40745 65.5538 4.79798 65.498 5.07693 65.498C6.58327 65.498 7.25276 66.0001 7.25276 67.1717C7.25276 68.2875 6.47169 68.9012 5.13272 68.9012H4.12849V65.5538Z" fill="white"/>
<path d="M15.9003 66.5022C13.1107 66.5022 11.2139 68.5665 11.2139 71.4676C11.2139 74.4803 12.7202 76.0424 15.5097 76.0424C18.2993 76.0424 20.1961 73.9781 20.1961 71.077C20.1961 68.1202 18.6898 66.5022 15.9003 66.5022ZM15.6771 73.8666C14.3939 73.8666 13.7802 73.0297 13.7802 71.2444C13.7802 69.3475 14.7845 68.6781 15.6771 68.6781C16.9045 68.6781 17.5182 69.5707 17.5182 71.2444C17.574 72.8623 16.8487 73.8666 15.6771 73.8666Z" fill="white"/>
<path d="M25.9426 66.5022C23.153 66.5022 21.2562 68.5665 21.2562 71.4676C21.2562 74.4803 22.7625 76.0424 25.552 76.0424C28.3416 76.0424 30.2384 73.9781 30.2384 71.077C30.2384 68.1202 28.7321 66.5022 25.9426 66.5022ZM25.7752 73.8666C24.492 73.8666 23.8783 73.0297 23.8783 71.2444C23.8783 69.3475 24.8825 68.6781 25.7752 68.6781C27.0026 68.6781 27.6163 69.5707 27.6163 71.2444C27.6163 72.8623 26.891 73.8666 25.7752 73.8666Z" fill="white"/>
<path d="M46.0829 73.9781V69.6265C46.0829 67.618 45.1345 66.558 43.2934 66.558C41.8429 66.558 40.8944 67.3391 40.3923 68.1759C40.1692 67.5064 39.4997 66.558 37.8817 66.558C36.7101 66.558 35.7059 67.0601 35.0922 67.9528C35.148 67.5622 35.148 67.1159 35.148 66.837V66.7254H35.0364C33.809 66.6696 32.4143 66.7254 31.2985 66.8928H31.1869V68.5665H31.2985C31.7448 68.6223 32.3027 68.678 32.749 68.7338V73.9781C32.2469 74.0339 31.7448 74.0897 31.2985 74.2013H31.1869V75.875H36.5986V74.2013H36.487C36.1522 74.0897 35.7059 74.0339 35.2596 73.9781V71.5234C35.2596 69.8496 36.2638 68.7338 37.2123 68.7338C37.8817 68.7338 38.1607 69.1244 38.1607 70.1286V75.875H42.0102V74.2013H41.8987C41.5639 74.0897 41.1176 74.0339 40.6713 73.9781V71.5234C40.6713 69.8496 41.6755 68.7338 42.6239 68.7338C43.2934 68.7338 43.5724 69.1244 43.5724 70.1844V75.875H47.5893V74.2013H47.4777C46.9756 74.0897 46.5293 73.9781 46.0829 73.9781Z" fill="white"/>
<path d="M57.1294 73.755C56.8505 73.8108 56.5157 73.8665 56.1252 73.8665C55.4557 73.8665 55.1768 73.6992 55.1768 72.5276V68.7338H57.3526V66.7254H55.1768V63.3221L52.6662 63.9916V66.7254H51.1041V68.7338H52.6662V73.1413C52.6662 75.3171 53.3357 76.0424 55.3999 76.0424C56.0136 76.0424 56.7389 75.9308 57.3526 75.7634H57.4642L57.2968 73.6992L57.1294 73.755Z" fill="white"/>
<path d="M62.7643 66.5022C59.9748 66.5022 58.0779 68.5665 58.0779 71.4676C58.0779 74.4803 59.5842 76.0424 62.3737 76.0424C65.1633 76.0424 67.0601 73.9781 67.0601 71.077C67.0601 68.1202 65.5538 66.5022 62.7643 66.5022ZM62.5969 73.8666C61.3137 73.8666 60.7 73.0297 60.7 71.2444C60.7 69.3475 61.7043 68.6781 62.5969 68.6781C63.8243 68.6781 64.438 69.5707 64.438 71.2444C64.438 72.8623 63.7127 73.8666 62.5969 73.8666Z" fill="white"/>
<path d="M80.6172 73.9781H80.4498L78.7203 71.077C78.6088 70.8539 78.3856 70.5749 78.2182 70.296C79.8361 69.7939 80.8404 68.6223 80.8404 67.0043C80.8404 64.6053 79.334 63.4337 76.2098 63.4337C75.3171 63.4337 74.2013 63.4895 73.4202 63.4895C72.9739 63.4895 72.5834 63.4895 72.416 63.4895H70.8539V65.1633H70.9655C71.4676 65.2748 71.9697 65.3306 72.416 65.3864V73.9224C71.9697 73.9781 71.4118 74.0339 70.9655 74.1455H70.8539V75.8192H76.0982V74.1455H75.9866C75.6519 74.0339 75.3171 73.9781 74.9824 73.9224V70.8539H75.5961L78.3856 75.875H81.6214V74.1455H81.5099C81.2309 74.0897 80.8962 74.0339 80.6172 73.9781ZM75.0382 65.5538C75.3171 65.5538 75.7076 65.498 75.9866 65.498C77.4929 65.498 78.1624 66.0001 78.1624 67.1717C78.1624 68.2875 77.3814 68.9012 76.0424 68.9012H75.0382V65.5538Z" fill="white"/>
<path d="M86.4194 66.5022C83.7972 66.5022 82.0677 68.4549 82.0677 71.356C82.0677 74.4803 83.5741 76.0424 86.5868 76.0424C87.6468 76.0424 88.8742 75.8192 89.8784 75.4845L89.99 75.4287L89.711 73.4202L89.5437 73.476C88.7068 73.8108 87.8142 73.9782 86.9773 73.9782C86.1404 73.9782 85.5268 73.8108 85.192 73.4202C84.8573 73.0855 84.6341 72.5276 84.6341 71.8023H90.1574V71.6907C90.2132 71.2444 90.269 70.6307 90.269 70.4076C90.269 67.9528 88.8742 66.5022 86.4194 66.5022ZM86.3078 68.4549C86.6984 68.4549 87.0889 68.5665 87.3121 68.8454C87.591 69.1244 87.7026 69.5149 87.7026 70.0728H84.6899C84.8573 69.0686 85.471 68.4549 86.3078 68.4549Z" fill="white"/>
<path d="M99.1396 73.8666V69.7381C99.1396 67.4507 97.968 66.5022 95.2901 66.5022C94.2859 66.5022 93.1701 66.6696 92.1658 66.9486H92.0542V69.7939H93.728V69.6823C93.8395 69.2918 93.8953 68.9012 93.8953 68.5665C94.2859 68.4549 94.7322 68.3991 95.1227 68.3991C96.1827 68.3991 96.5733 68.7896 96.5733 69.7939V70.1844C93.2816 70.2402 91.3848 71.4676 91.3848 73.476C91.3848 75.0382 92.4448 76.0424 94.0627 76.0424C95.1785 76.0424 96.1827 75.5403 96.7964 74.7592C96.7964 75.094 96.7964 75.4287 96.7964 75.7634V75.875H96.908C98.0796 75.9308 99.4744 75.875 100.534 75.7077H100.646V74.0339H100.534C100.088 74.0339 99.586 73.9781 99.1396 73.8666ZM94.788 74.0897C94.2301 74.0897 93.8395 73.755 93.8395 73.1971C93.8395 72.695 94.1185 71.9697 96.5733 71.9697V72.0813C96.5733 73.0297 95.9038 74.0897 94.788 74.0897Z" fill="white"/>
<path d="M109.684 73.8666V62.4853H109.572C108.234 62.4295 106.839 62.4853 105.723 62.6527H105.611V64.3264H105.723C106.169 64.3822 106.727 64.438 107.173 64.4938V66.6138C106.839 66.558 106.56 66.558 106.169 66.558C103.212 66.558 101.315 68.6223 101.315 71.8023C101.315 74.536 102.543 76.0982 104.719 76.0982C105.835 76.0982 106.839 75.5961 107.397 74.7592C107.341 75.0939 107.341 75.4287 107.341 75.7634V75.875H107.452C108.68 75.9308 110.075 75.875 111.079 75.7076H111.19V74.0339H111.079C110.632 74.0339 110.075 73.9781 109.684 73.8666ZM105.332 73.9223C104.384 73.9223 103.938 73.1413 103.938 71.5234C103.938 69.5707 104.663 68.6223 106.058 68.6223C106.392 68.6223 106.727 68.678 107.118 68.7338V71.1328C107.118 72.4718 106.504 73.9223 105.332 73.9223Z" fill="white"/>
<path d="M114.147 62.6527C113.087 62.6527 112.195 63.4895 112.195 64.5496C112.195 65.6096 113.031 66.4464 114.147 66.4464C115.207 66.4464 116.1 65.5538 116.1 64.5496C116.1 63.4895 115.263 62.6527 114.147 62.6527ZM114.147 66.0001C113.366 66.0001 112.753 65.3306 112.753 64.5496C112.753 63.7685 113.366 63.1548 114.147 63.1548C114.928 63.1548 115.542 63.8243 115.542 64.6053C115.542 65.3306 114.928 66.0001 114.147 66.0001Z" fill="white"/>
<path d="M114.426 64.6611C114.705 64.6053 114.873 64.438 114.873 64.1032C114.873 63.7685 114.705 63.6011 114.203 63.6011H113.534V65.6096H113.98V64.7169H114.036L114.482 65.5538H114.984L114.594 64.9401C114.538 64.8285 114.482 64.7169 114.426 64.6611ZM114.091 64.438H113.98V63.8801H114.147C114.37 63.8801 114.482 63.9358 114.482 64.1032C114.426 64.2706 114.315 64.438 114.091 64.438Z" fill="white"/>
</g>
<defs>
<clipPath id="clip0_4_89">
<rect width="116.1" height="76.0982" fill="white"/>
</clipPath>
</defs>
</svg>
