<svg width="15" height="15" viewBox="0 0 15 15" fill="none" xmlns="http://www.w3.org/2000/svg">
<path d="M1.65627 7.90375V7.09094L0.636269 6.19844C0.448246 6.03272 0.324861 5.80586 0.28792 5.55796C0.250978 5.31007 0.30286 5.0571 0.434394 4.84375L1.68814 2.71875C1.78131 2.55739 1.91526 2.42337 2.07657 2.33012C2.23789 2.23688 2.42088 2.18769 2.60721 2.1875C2.72267 2.18662 2.83751 2.20456 2.94721 2.24063L4.23814 2.67625C4.46103 2.52814 4.69352 2.39504 4.93408 2.27782L5.20502 0.939065C5.2536 0.69448 5.38666 0.474774 5.5809 0.318407C5.77515 0.16204 6.0182 0.0789745 6.26752 0.0837523H8.75377C9.00309 0.0789745 9.24614 0.16204 9.44038 0.318407C9.63463 0.474774 9.76769 0.69448 9.81627 0.939065L10.0872 2.27782C10.3295 2.39501 10.5638 2.52811 10.7885 2.67625L12.0528 2.21938C12.1637 2.19049 12.2785 2.17973 12.3928 2.1875C12.5792 2.18769 12.7622 2.23688 12.9235 2.33012C13.0848 2.42337 13.2187 2.55739 13.3119 2.71875L14.5656 4.84375C14.6896 5.05678 14.7357 5.30629 14.696 5.54955C14.6562 5.79281 14.5332 6.01469 14.3478 6.17719L13.3438 7.09625V7.90906L14.3478 8.80157C14.5384 8.96519 14.6649 9.19104 14.7047 9.43904C14.7446 9.68703 14.6953 9.94114 14.5656 10.1563L13.3119 12.2813C13.2187 12.4426 13.0848 12.5766 12.9235 12.6699C12.7622 12.7631 12.5792 12.8123 12.3928 12.8125C12.2774 12.8134 12.1625 12.7954 12.0528 12.7594L10.7619 12.3238C10.539 12.4719 10.3065 12.605 10.066 12.7222L9.79502 14.0609C9.74644 14.3055 9.61338 14.5252 9.41913 14.6816C9.22489 14.838 8.98184 14.921 8.73252 14.9163H6.22502C5.9757 14.921 5.73265 14.838 5.5384 14.6816C5.34416 14.5252 5.2111 14.3055 5.16252 14.0609L4.89158 12.7222C4.6493 12.605 4.41503 12.4719 4.19033 12.3238L2.90471 12.7594C2.79501 12.7954 2.68017 12.8134 2.56471 12.8125C2.37838 12.8123 2.19539 12.7631 2.03407 12.6699C1.87276 12.5766 1.7388 12.4426 1.64564 12.2813L0.434394 10.1563C0.310393 9.94323 0.264315 9.69372 0.304051 9.45045C0.343787 9.20719 0.466866 8.98531 0.652206 8.82281L1.65627 7.90375ZM2.60721 11.75L4.42939 11.1338C4.85595 11.4951 5.34346 11.7775 5.86908 11.9678L6.24627 13.875H8.75377L9.13096 11.9891C9.65242 11.7933 10.1373 11.5114 10.5653 11.155L12.3928 11.75L13.6466 9.625L12.2016 8.35C12.2998 7.80008 12.2998 7.23711 12.2016 6.68719L13.6466 5.375L12.3928 3.25L10.5706 3.86625C10.1441 3.50495 9.65657 3.22251 9.13096 3.03219L8.75377 1.125H6.24627L5.86908 3.01094C5.34762 3.20666 4.86274 3.48861 4.43471 3.845L2.60721 3.25L1.35346 5.375L2.79846 6.65C2.70023 7.19992 2.70023 7.7629 2.79846 8.31281L1.35346 9.625L2.60721 11.75Z" fill="#0081B3"/>
<path d="M7.5 10.6875C8.13043 10.6875 8.7467 10.5006 9.27088 10.1503C9.79506 9.80006 10.2036 9.30224 10.4449 8.7198C10.6861 8.13737 10.7492 7.49647 10.6263 6.87815C10.5033 6.25984 10.1997 5.69188 9.7539 5.2461C9.30812 4.80032 8.74016 4.49674 8.12185 4.37375C7.50353 4.25076 6.86263 4.31388 6.2802 4.55514C5.69776 4.79639 5.19994 5.20494 4.84969 5.72912C4.49944 6.2533 4.3125 6.86957 4.3125 7.5C4.30824 7.91977 4.38777 8.33618 4.54645 8.72483C4.70513 9.11348 4.93976 9.46656 5.2366 9.7634C5.53344 10.0602 5.88652 10.2949 6.27517 10.4535C6.66382 10.6122 7.08023 10.6918 7.5 10.6875ZM7.5 5.375C7.78085 5.36846 8.0601 5.41895 8.32088 5.52343C8.58165 5.6279 8.81852 5.78419 9.01717 5.98283C9.21581 6.18148 9.3721 6.41835 9.47657 6.67912C9.58105 6.9399 9.63154 7.21915 9.625 7.5C9.63154 7.78085 9.58105 8.06011 9.47657 8.32088C9.3721 8.58165 9.21581 8.81853 9.01717 9.01717C8.81852 9.21581 8.58165 9.3721 8.32088 9.47658C8.0601 9.58105 7.78085 9.63154 7.5 9.625C7.21915 9.63154 6.93989 9.58105 6.67912 9.47658C6.41835 9.3721 6.18147 9.21581 5.98283 9.01717C5.78419 8.81853 5.6279 8.58165 5.52342 8.32088C5.41895 8.06011 5.36846 7.78085 5.375 7.5C5.36846 7.21915 5.41895 6.9399 5.52342 6.67912C5.6279 6.41835 5.78419 6.18148 5.98283 5.98283C6.18147 5.78419 6.41835 5.6279 6.67912 5.52343C6.93989 5.41895 7.21915 5.36846 7.5 5.375Z" fill="#0081B3"/>
</svg>
