<svg width="10" height="15" viewBox="0 0 10 15" fill="none" xmlns="http://www.w3.org/2000/svg">
<path d="M0.0479482 14.7134L0.16279 14.6328C0.520161 14.3841 8.90816 8.5375 9.14214 8.3624C9.47341 8.12985 9.64237 7.84223 9.64237 7.50859L9.64237 7.34298C9.63861 7.08527 9.54602 6.72267 9.14218 6.41942L9.14071 6.41844C8.94613 6.27938 6.96564 4.9073 4.86887 3.45413C4.68431 3.32618 4.49757 3.1968 4.31041 3.06711L4.18558 2.9806C2.33376 1.69729 0.475341 0.408945 0.223999 0.231126L0.223999 1.05296e-05L0.0868592 0.230674C0.0801924 0.242538 0.0740529 0.25252 0.0811717 0.268641L0.0768402 0.268641L0.07684 1.47507C0.0768399 1.88653 0.122415 2.08442 0.580428 2.38959C0.775497 2.51501 2.44596 3.66852 4.14276 4.84267L4.34238 4.98082C5.90599 6.06295 7.44369 7.129 7.82132 7.39044C7.02402 7.94427 1.04695 12.0937 0.637414 12.3936L0.588976 12.4287C0.286183 12.648 0.0479485 12.8207 0.0479485 13.2773L0.0479482 14.7134ZM0.823369 10.519C1.22775 10.2589 5.13841 7.54513 5.1778 7.51714L5.26654 7.4559L5.17637 7.39563C5.17637 7.39563 4.91204 7.21955 4.61874 7.01453C4.36766 6.83039 4.13274 6.73833 3.89925 6.73833C3.69186 6.73833 3.48636 6.81046 3.26993 6.95427C3.03942 7.10817 2.38995 7.55616 1.73258 8.01131L1.64293 8.07339C1.10538 8.44574 0.56818 8.8186 0.0313387 9.19198L9.61584e-07 9.21382L8.00433e-07 10.1355C7.63421e-07 10.3472 0.0911513 10.5147 0.251079 10.5958C0.422382 10.6832 0.636435 10.6547 0.823407 10.519L0.823369 10.519Z" fill="#0081B3"/>
</svg>
